<svg width="538" height="51" viewBox="0 0 538 51" fill="none" xmlns="http://www.w3.org/2000/svg">
<path d="M0.248 49V2.28H17.464L35.064 40.488H37.24L35.96 41.64V2.28H45.816V49H28.472L10.872 10.792H8.696L9.976 9.64V49H0.248ZM67.5745 50.088C63.5212 50.088 60.4065 48.7867 58.2305 46.184C56.0545 43.5387 54.9665 39.5707 54.9665 34.28V13.928H65.2065V34.792C65.2065 36.6693 65.7398 38.1627 66.8065 39.272C67.8732 40.3813 69.3025 40.936 71.0945 40.936C72.9292 40.936 74.4225 40.36 75.5745 39.208C76.7265 38.056 77.3025 36.4987 77.3025 34.536V13.928H87.5425V49H79.4145V34.216H80.1185C80.1185 37.7573 79.6492 40.7227 78.7105 43.112C77.8145 45.4587 76.4705 47.208 74.6785 48.36C72.8865 49.512 70.6678 50.088 68.0225 50.088H67.5745ZM96.9845 49V13.928H105.113V29.032H104.537C104.537 25.448 104.985 22.4613 105.881 20.072C106.777 17.6827 108.121 15.8907 109.913 14.696C111.705 13.4587 113.902 12.84 116.505 12.84H116.953C119.598 12.84 121.795 13.4587 123.545 14.696C125.337 15.8907 126.681 17.6827 127.576 20.072C128.515 22.4613 128.985 25.448 128.985 29.032H126.489C126.489 25.448 126.937 22.4613 127.833 20.072C128.771 17.6827 130.137 15.8907 131.929 14.696C133.721 13.4587 135.918 12.84 138.521 12.84H138.969C141.614 12.84 143.833 13.4587 145.625 14.696C147.459 15.8907 148.846 17.6827 149.785 20.072C150.723 22.4613 151.193 25.448 151.193 29.032V49H140.953V28.456C140.953 26.536 140.441 24.9787 139.417 23.784C138.435 22.5893 137.027 21.992 135.193 21.992C133.358 21.992 131.907 22.6107 130.841 23.848C129.774 25.0427 129.241 26.6427 129.241 28.648V49H118.937V28.456C118.937 26.536 118.425 24.9787 117.401 23.784C116.419 22.5893 115.033 21.992 113.241 21.992C111.363 21.992 109.891 22.6107 108.825 23.848C107.758 25.0427 107.225 26.6427 107.225 28.648V49H96.9845ZM181.49 50.152C178.631 50.152 176.114 49.5547 173.938 48.36C171.762 47.1227 170.055 45.352 168.818 43.048C167.581 40.744 166.919 37.928 166.834 34.6H168.05V49H159.922V2.28H170.162V26.024L167.73 29.096C167.858 25.5547 168.519 22.5893 169.714 20.2C170.951 17.768 172.637 15.9547 174.77 14.76C176.903 13.5227 179.335 12.904 182.066 12.904C184.455 12.904 186.61 13.352 188.53 14.248C190.493 15.1013 192.157 16.3387 193.522 17.96C194.887 19.5387 195.933 21.416 196.658 23.592C197.426 25.768 197.81 28.136 197.81 30.696V32.104C197.81 34.664 197.426 37.032 196.658 39.208C195.933 41.384 194.845 43.304 193.394 44.968C191.986 46.5893 190.279 47.8693 188.274 48.808C186.269 49.704 184.007 50.152 181.49 50.152ZM178.802 41.576C180.551 41.576 182.066 41.1493 183.346 40.296C184.669 39.4427 185.693 38.248 186.418 36.712C187.143 35.1333 187.506 33.3627 187.506 31.4C187.506 29.3947 187.143 27.6453 186.418 26.152C185.693 24.6587 184.669 23.5067 183.346 22.696C182.066 21.8427 180.551 21.416 178.802 21.416C177.266 21.416 175.815 21.7787 174.45 22.504C173.085 23.2293 171.975 24.2747 171.122 25.64C170.311 26.9627 169.906 28.584 169.906 30.504V32.872C169.906 34.7067 170.333 36.2853 171.186 37.608C172.082 38.888 173.213 39.8693 174.578 40.552C175.943 41.2347 177.351 41.576 178.802 41.576Z" fill="#FFED8B"/>
<path d="M227.642 50.216C223.461 50.216 219.813 49.5333 216.698 48.168C213.583 46.76 211.002 44.8827 208.954 42.536C206.949 40.1893 205.455 37.5867 204.474 34.728C203.493 31.8693 203.002 29.0107 203.002 26.152V24.744C203.002 21.8 203.493 18.92 204.474 16.104C205.455 13.288 206.927 10.728 208.89 8.424C210.895 6.12 213.37 4.28533 216.314 2.92C219.301 1.55466 222.735 0.871998 226.618 0.871998C230.842 0.871998 234.575 1.66133 237.818 3.24C241.061 4.776 243.663 6.93067 245.626 9.704C247.589 12.4347 248.719 15.6133 249.018 19.24H238.522C238.266 17.5333 237.583 16.04 236.474 14.76C235.407 13.48 234.021 12.4773 232.314 11.752C230.65 11.0267 228.751 10.664 226.618 10.664C224.57 10.664 222.735 11.0267 221.114 11.752C219.535 12.4773 218.17 13.5013 217.018 14.824C215.909 16.1467 215.055 17.7253 214.458 19.56C213.903 21.352 213.626 23.336 213.626 25.512C213.626 27.7733 213.925 29.8427 214.522 31.72C215.162 33.5547 216.079 35.1547 217.274 36.52C218.469 37.8427 219.941 38.8667 221.69 39.592C223.482 40.3173 225.466 40.68 227.642 40.68C230.543 40.68 233.061 40.0827 235.194 38.888C237.327 37.6933 238.863 36.1147 239.802 34.152L238.522 41.32V30.184H248.186V40.168C246.181 43.4107 243.407 45.9067 239.866 47.656C236.367 49.3627 232.293 50.216 227.642 50.216ZM226.298 32.232V24.68H252.026V32.232H226.298ZM274.299 50.216C271.312 50.216 268.667 49.704 266.363 48.68C264.101 47.656 262.203 46.2907 260.667 44.584C259.173 42.8347 258.021 40.8933 257.211 38.76C256.443 36.584 256.059 34.3653 256.059 32.104V30.824C256.059 28.4773 256.443 26.2373 257.211 24.104C258.021 21.928 259.173 19.9867 260.667 18.28C262.16 16.5733 264.016 15.2293 266.235 14.248C268.496 13.224 271.056 12.712 273.915 12.712C277.669 12.712 280.827 13.5653 283.387 15.272C285.989 16.936 287.973 19.1333 289.339 21.864C290.704 24.552 291.387 27.496 291.387 30.696V34.152H260.347V28.328H285.179L281.851 31.016C281.851 28.9253 281.552 27.1333 280.955 25.64C280.357 24.1467 279.461 23.016 278.267 22.248C277.115 21.4373 275.664 21.032 273.915 21.032C272.123 21.032 270.608 21.4373 269.371 22.248C268.133 23.0587 267.195 24.2533 266.555 25.832C265.915 27.368 265.595 29.2667 265.595 31.528C265.595 33.6187 265.893 35.4533 266.491 37.032C267.088 38.568 268.027 39.7627 269.307 40.616C270.587 41.4693 272.251 41.896 274.299 41.896C276.176 41.896 277.712 41.5333 278.907 40.808C280.101 40.0827 280.912 39.1867 281.339 38.12H290.747C290.235 40.4667 289.232 42.5573 287.739 44.392C286.245 46.2267 284.368 47.656 282.107 48.68C279.845 49.704 277.243 50.216 274.299 50.216ZM298.172 49V13.928H306.3V28.968H305.724C305.724 25.384 306.172 22.3973 307.068 20.008C308.007 17.6187 309.415 15.8267 311.292 14.632C313.169 13.4373 315.452 12.84 318.14 12.84H318.588C322.684 12.84 325.799 14.184 327.932 16.872C330.108 19.5173 331.196 23.5493 331.196 28.968V49H320.956V28.392C320.956 26.5147 320.401 24.9787 319.292 23.784C318.183 22.5893 316.689 21.992 314.812 21.992C312.892 21.992 311.335 22.6107 310.14 23.848C308.988 25.0427 308.412 26.6213 308.412 28.584V49H298.172ZM355.986 50.216C352.999 50.216 350.354 49.704 348.05 48.68C345.789 47.656 343.89 46.2907 342.354 44.584C340.861 42.8347 339.709 40.8933 338.898 38.76C338.13 36.584 337.746 34.3653 337.746 32.104V30.824C337.746 28.4773 338.13 26.2373 338.898 24.104C339.709 21.928 340.861 19.9867 342.354 18.28C343.847 16.5733 345.703 15.2293 347.922 14.248C350.183 13.224 352.743 12.712 355.602 12.712C359.357 12.712 362.514 13.5653 365.074 15.272C367.677 16.936 369.661 19.1333 371.026 21.864C372.391 24.552 373.074 27.496 373.074 30.696V34.152H342.034V28.328H366.866L363.538 31.016C363.538 28.9253 363.239 27.1333 362.642 25.64C362.045 24.1467 361.149 23.016 359.954 22.248C358.802 21.4373 357.351 21.032 355.602 21.032C353.81 21.032 352.295 21.4373 351.058 22.248C349.821 23.0587 348.882 24.2533 348.242 25.832C347.602 27.368 347.282 29.2667 347.282 31.528C347.282 33.6187 347.581 35.4533 348.178 37.032C348.775 38.568 349.714 39.7627 350.994 40.616C352.274 41.4693 353.938 41.896 355.986 41.896C357.863 41.896 359.399 41.5333 360.594 40.808C361.789 40.0827 362.599 39.1867 363.026 38.12H372.434C371.922 40.4667 370.919 42.5573 369.426 44.392C367.933 46.2267 366.055 47.656 363.794 48.68C361.533 49.704 358.93 50.216 355.986 50.216ZM379.86 49V13.928H387.988V28.968H387.796C387.796 24.0187 388.841 20.2 390.932 17.512C393.065 14.824 396.137 13.48 400.148 13.48H401.492V22.312H398.932C396.116 22.312 393.94 23.08 392.404 24.616C390.868 26.1093 390.1 28.2853 390.1 31.144V49H379.86ZM427.731 49V38.632H426.003V27.368C426.003 25.576 425.576 24.232 424.723 23.336C423.87 22.44 422.504 21.992 420.627 21.992C419.688 21.992 418.451 22.0133 416.915 22.056C415.379 22.0987 413.8 22.1627 412.179 22.248C410.558 22.3333 409.086 22.4187 407.763 22.504V13.864C408.744 13.7787 409.896 13.6933 411.219 13.608C412.542 13.5227 413.907 13.4587 415.315 13.416C416.723 13.3733 418.046 13.352 419.283 13.352C422.867 13.352 425.875 13.864 428.307 14.888C430.782 15.912 432.659 17.4693 433.939 19.56C435.219 21.608 435.859 24.2533 435.859 27.496V49H427.731ZM416.531 49.896C414.014 49.896 411.795 49.448 409.875 48.552C407.998 47.656 406.526 46.376 405.459 44.712C404.392 43.0053 403.859 40.9787 403.859 38.632C403.859 36.072 404.52 33.9813 405.843 32.36C407.166 30.696 409.022 29.48 411.411 28.712C413.8 27.9013 416.552 27.496 419.667 27.496H427.155V33.192H419.603C417.811 33.192 416.424 33.64 415.443 34.536C414.504 35.3893 414.035 36.5627 414.035 38.056C414.035 39.464 414.504 40.616 415.443 41.512C416.424 42.3653 417.811 42.792 419.603 42.792C420.755 42.792 421.779 42.6 422.675 42.216C423.614 41.7893 424.382 41.0853 424.979 40.104C425.576 39.1227 425.918 37.7573 426.003 36.008L428.435 38.568C428.222 41 427.624 43.048 426.643 44.712C425.704 46.376 424.382 47.656 422.675 48.552C421.011 49.448 418.963 49.896 416.531 49.896ZM460.483 49.448C456.942 49.448 454.083 49.0213 451.907 48.168C449.731 47.272 448.131 45.8 447.107 43.752C446.126 41.6613 445.635 38.8453 445.635 35.304V4.456H455.171V35.688C455.171 37.352 455.598 38.632 456.451 39.528C457.347 40.3813 458.606 40.808 460.227 40.808H465.411V49.448H460.483ZM440.323 21.416V13.928H465.411V21.416H440.323ZM489.26 50.216C486.188 50.216 483.457 49.7467 481.068 48.808C478.679 47.8267 476.652 46.504 474.988 44.84C473.367 43.176 472.129 41.2773 471.276 39.144C470.423 36.968 469.996 34.6853 469.996 32.296V30.824C469.996 28.392 470.423 26.088 471.276 23.912C472.172 21.6933 473.452 19.752 475.116 18.088C476.823 16.424 478.871 15.1227 481.26 14.184C483.649 13.2027 486.316 12.712 489.26 12.712C492.289 12.712 494.977 13.2027 497.324 14.184C499.713 15.1227 501.74 16.424 503.404 18.088C505.068 19.752 506.348 21.6933 507.244 23.912C508.14 26.088 508.588 28.392 508.588 30.824V32.296C508.588 34.6853 508.161 36.968 507.308 39.144C506.455 41.2773 505.196 43.176 503.532 44.84C501.911 46.504 499.905 47.8267 497.516 48.808C495.127 49.7467 492.375 50.216 489.26 50.216ZM489.26 41.576C491.265 41.576 492.929 41.1493 494.252 40.296C495.575 39.4427 496.577 38.248 497.26 36.712C497.985 35.176 498.348 33.4693 498.348 31.592C498.348 29.5867 497.985 27.8373 497.26 26.344C496.535 24.808 495.489 23.592 494.124 22.696C492.801 21.8 491.18 21.352 489.26 21.352C487.383 21.352 485.761 21.8 484.396 22.696C483.031 23.592 481.985 24.808 481.26 26.344C480.577 27.8373 480.236 29.5867 480.236 31.592C480.236 33.4693 480.577 35.176 481.26 36.712C481.943 38.248 482.967 39.4427 484.332 40.296C485.697 41.1493 487.34 41.576 489.26 41.576ZM515.735 49V13.928H523.863V28.968H523.671C523.671 24.0187 524.716 20.2 526.807 17.512C528.94 14.824 532.012 13.48 536.023 13.48H537.367V22.312H534.807C531.991 22.312 529.815 23.08 528.279 24.616C526.743 26.1093 525.975 28.2853 525.975 31.144V49H515.735Z" fill="white"/>
</svg>
